<?xml version="1.0" standalone="no"?>
<svg xmlns:xlink="http://www.w3.org/1999/xlink" id="wave" style="transform:rotate(0deg); transition: 0.3s" viewBox="0 0 1440 150" version="1.1" xmlns="http://www.w3.org/2000/svg"><defs><linearGradient id="sw-gradient-0" x1="0" x2="0" y1="1" y2="0"><stop stop-color="rgba(7, 12, 139, 1)" offset="0%"/><stop stop-color="rgba(0, 0, 0, 1)" offset="100%"/></linearGradient></defs><path style="transform:translate(0, 0px); opacity:1" fill="url(#sw-gradient-0)" d="M0,45L48,50C96,55,192,65,288,77.5C384,90,480,105,576,115C672,125,768,130,864,127.5C960,125,1056,115,1152,97.5C1248,80,1344,55,1440,60C1536,65,1632,100,1728,95C1824,90,1920,45,2016,42.5C2112,40,2208,80,2304,87.5C2400,95,2496,70,2592,67.5C2688,65,2784,85,2880,90C2976,95,3072,85,3168,80C3264,75,3360,75,3456,80C3552,85,3648,95,3744,105C3840,115,3936,125,4032,122.5C4128,120,4224,105,4320,100C4416,95,4512,100,4608,102.5C4704,105,4800,105,4896,100C4992,95,5088,85,5184,77.5C5280,70,5376,65,5472,62.5C5568,60,5664,60,5760,67.5C5856,75,5952,90,6048,95C6144,100,6240,95,6336,97.5C6432,100,6528,110,6624,112.5C6720,115,6816,110,6864,107.5L6912,105L6912,150L6864,150C6816,150,6720,150,6624,150C6528,150,6432,150,6336,150C6240,150,6144,150,6048,150C5952,150,5856,150,5760,150C5664,150,5568,150,5472,150C5376,150,5280,150,5184,150C5088,150,4992,150,4896,150C4800,150,4704,150,4608,150C4512,150,4416,150,4320,150C4224,150,4128,150,4032,150C3936,150,3840,150,3744,150C3648,150,3552,150,3456,150C3360,150,3264,150,3168,150C3072,150,2976,150,2880,150C2784,150,2688,150,2592,150C2496,150,2400,150,2304,150C2208,150,2112,150,2016,150C1920,150,1824,150,1728,150C1632,150,1536,150,1440,150C1344,150,1248,150,1152,150C1056,150,960,150,864,150C768,150,672,150,576,150C480,150,384,150,288,150C192,150,96,150,48,150L0,150Z"/><defs><linearGradient id="sw-gradient-1" x1="0" x2="0" y1="1" y2="0"><stop stop-color="rgba(9.427, 9.427, 9.427, 1)" offset="0%"/><stop stop-color="rgba(7, 12, 139, 1)" offset="100%"/></linearGradient></defs><path style="transform:translate(0, 50px); opacity:0.9" fill="url(#sw-gradient-1)" d="M0,0L48,20C96,40,192,80,288,92.5C384,105,480,90,576,75C672,60,768,45,864,47.5C960,50,1056,70,1152,72.5C1248,75,1344,60,1440,52.5C1536,45,1632,45,1728,47.5C1824,50,1920,55,2016,50C2112,45,2208,30,2304,32.5C2400,35,2496,55,2592,57.5C2688,60,2784,45,2880,52.5C2976,60,3072,90,3168,107.5C3264,125,3360,130,3456,112.5C3552,95,3648,55,3744,40C3840,25,3936,35,4032,47.5C4128,60,4224,75,4320,72.5C4416,70,4512,50,4608,40C4704,30,4800,30,4896,30C4992,30,5088,30,5184,25C5280,20,5376,10,5472,10C5568,10,5664,20,5760,35C5856,50,5952,70,6048,80C6144,90,6240,90,6336,97.5C6432,105,6528,120,6624,107.5C6720,95,6816,55,6864,35L6912,15L6912,150L6864,150C6816,150,6720,150,6624,150C6528,150,6432,150,6336,150C6240,150,6144,150,6048,150C5952,150,5856,150,5760,150C5664,150,5568,150,5472,150C5376,150,5280,150,5184,150C5088,150,4992,150,4896,150C4800,150,4704,150,4608,150C4512,150,4416,150,4320,150C4224,150,4128,150,4032,150C3936,150,3840,150,3744,150C3648,150,3552,150,3456,150C3360,150,3264,150,3168,150C3072,150,2976,150,2880,150C2784,150,2688,150,2592,150C2496,150,2400,150,2304,150C2208,150,2112,150,2016,150C1920,150,1824,150,1728,150C1632,150,1536,150,1440,150C1344,150,1248,150,1152,150C1056,150,960,150,864,150C768,150,672,150,576,150C480,150,384,150,288,150C192,150,96,150,48,150L0,150Z"/></svg>